<svg width="20" height="21" viewBox="0 0 20 21" fill="none" xmlns="http://www.w3.org/2000/svg">
<path d="M1.66666 10.5C1.66666 7.35751 1.66666 5.78584 2.64332 4.81001C3.61999 3.83418 5.19082 3.83334 8.33332 3.83334H11.6667C14.8092 3.83334 16.3808 3.83334 17.3567 4.81001C18.3325 5.78668 18.3333 7.35751 18.3333 10.5V12.1667C18.3333 15.3092 18.3333 16.8808 17.3567 17.8567C16.38 18.8325 14.8092 18.8333 11.6667 18.8333H8.33332C5.19082 18.8333 3.61916 18.8333 2.64332 17.8567C1.66749 16.88 1.66666 15.3092 1.66666 12.1667V10.5Z" stroke="#0E89FC" stroke-width="1.5"/>
<path d="M5.83331 3.83334V2.58334M14.1666 3.83334V2.58334" stroke="#0E89FC" stroke-width="1.5" stroke-linecap="round"/>
<path d="M7.5 12.5833L8.75 11.3333V14.6667" stroke="#0E89FC" stroke-width="1.5" stroke-linecap="round" stroke-linejoin="round"/>
<path d="M2.08331 8H17.9166M10.8333 13.8333V12.1667C10.8333 11.9457 10.9211 11.7337 11.0774 11.5774C11.2337 11.4211 11.4456 11.3333 11.6666 11.3333C11.8877 11.3333 12.0996 11.4211 12.2559 11.5774C12.4122 11.7337 12.5 11.9457 12.5 12.1667V13.8333C12.5 14.0543 12.4122 14.2663 12.2559 14.4226C12.0996 14.5789 11.8877 14.6667 11.6666 14.6667C11.4456 14.6667 11.2337 14.5789 11.0774 14.4226C10.9211 14.2663 10.8333 14.0543 10.8333 13.8333Z" stroke="#0E89FC" stroke-width="1.5" stroke-linecap="round"/>
</svg>
