<svg width="88" height="88" viewBox="0 0 88 88" fill="none" xmlns="http://www.w3.org/2000/svg">
<path fill-rule="evenodd" clip-rule="evenodd" d="M80.7708 59.8383C49.3393 69.2858 19.0717 55.6378 10.1846 23.7368C9.88888 22.6748 8.78838 22.0534 7.73467 22.3407C6.66899 22.6401 6.04639 23.7417 6.34215 24.8038C15.8566 59.0085 48.2329 73.7832 81.9155 63.6652C82.9668 63.3515 83.5717 62.2318 83.2567 61.1745C82.9299 60.1292 81.8221 59.5246 80.7708 59.8383Z" fill="#0E89FC"/>
<path d="M36.1128 32.1329C38.3834 34.4035 42.0648 34.4035 44.3354 32.1329C46.606 29.8623 46.6059 26.181 44.3353 23.9104C42.0647 21.6398 38.3834 21.6398 36.1128 23.9104C33.8422 26.181 33.8422 29.8623 36.1128 32.1329Z" fill="#0E89FC"/>
<path d="M57.5062 44.7796C59.7325 47.0058 63.3419 47.0059 65.5681 44.7796C67.7943 42.5534 67.7943 38.944 65.568 36.7178C63.3418 34.4915 59.7325 34.4915 57.5062 36.7178C55.28 38.944 55.28 42.5533 57.5062 44.7796Z" fill="#0E89FC"/>
</svg>
