<svg width="71" height="71" viewBox="0 0 71 71" fill="none" xmlns="http://www.w3.org/2000/svg">
<rect x="0.333344" y="0.609985" width="70" height="70" rx="4" fill="#0E89FC"/>
<path d="M51.5717 35.9717L36.5717 19.305C35.94 18.6017 34.7267 18.6017 34.095 19.305L19.095 35.9717C18.8795 36.2112 18.738 36.5081 18.6877 36.8264C18.6374 37.1447 18.6805 37.4707 18.8117 37.765C19.0783 38.3667 19.675 38.7534 20.3333 38.7534H23.6667V50.42C23.6667 50.8621 23.8423 51.286 24.1548 51.5985C24.4674 51.9111 24.8913 52.0867 25.3333 52.0867H45.3333C45.7754 52.0867 46.1993 51.9111 46.5119 51.5985C46.8244 51.286 47 50.8621 47 50.42V38.7534H50.3333C50.6561 38.7547 50.9723 38.6622 51.2434 38.4869C51.5145 38.3117 51.7287 38.0614 51.86 37.7665C51.9913 37.4716 52.0339 37.1449 51.9827 36.8262C51.9315 36.5075 51.7887 36.2106 51.5717 35.9717ZM42 40.42H37V45.42H33.6667V40.42H28.6667V37.0867H33.6667V32.0867H37V37.0867H42V40.42Z" fill="#F1F8FF"/>
</svg>
