<svg width="20" height="21" viewBox="0 0 20 21" fill="none" xmlns="http://www.w3.org/2000/svg">
<path d="M7.5 9.66666C7.5 10.3297 7.76339 10.9656 8.23223 11.4344C8.70107 11.9033 9.33696 12.1667 10 12.1667C10.663 12.1667 11.2989 11.9033 11.7678 11.4344C12.2366 10.9656 12.5 10.3297 12.5 9.66666C12.5 9.00362 12.2366 8.36773 11.7678 7.89889C11.2989 7.43005 10.663 7.16666 10 7.16666C9.33696 7.16666 8.70107 7.43005 8.23223 7.89889C7.76339 8.36773 7.5 9.00362 7.5 9.66666Z" stroke="#0E89FC" stroke-width="1.5" stroke-linecap="round" stroke-linejoin="round"/>
<path d="M14.7142 14.3808L11.1783 17.9167C10.8658 18.2289 10.4422 18.4042 10.0004 18.4042C9.55869 18.4042 9.13503 18.2289 8.82251 17.9167L5.28585 14.3808C4.35353 13.4485 3.71863 12.2606 3.46142 10.9674C3.20421 9.67419 3.33625 8.33376 3.84085 7.11561C4.34544 5.89745 5.19993 4.85628 6.29625 4.12376C7.39257 3.39123 8.68149 3.00024 10 3.00024C11.3185 3.00024 12.6075 3.39123 13.7038 4.12376C14.8001 4.85628 15.6546 5.89745 16.1592 7.11561C16.6638 8.33376 16.7958 9.67419 16.5386 10.9674C16.2814 12.2606 15.6465 13.4485 14.7142 14.3808Z" stroke="#0E89FC" stroke-width="1.5" stroke-linecap="round" stroke-linejoin="round"/>
</svg>
