<svg width="1152" height="539" viewBox="0 0 1152 539" fill="none" xmlns="http://www.w3.org/2000/svg">
<path d="M-4.75958 522.424C210.186 417.218 283.536 301.196 310.118 213.179C339.783 114.948 324.485 7.58531 356.507 0.918021C377.012 -3.35276 402.243 36.7375 449.282 124.62C591.929 391.113 595.158 461.884 655.933 480.251C741.07 506.001 793.553 384.862 924.419 387.473C1020.54 389.396 1098.31 456.844 1150.73 516.798" stroke="#C5DFF9" stroke-miterlimit="10"/>
<path d="M-9.92133 511.848C198.972 408.907 276.535 296.13 305.226 213.64C337.287 121.455 322.145 19.6383 353.835 14.8228C374.209 11.7247 398.965 51.1293 444.403 136C582.49 393.884 586.774 465.536 647.08 482.997C732.711 507.443 782.906 377.541 915.159 375.773C918.043 375.734 920.881 375.734 923.723 375.811C1017.56 378.422 1096.44 445.902 1149.99 505.488" stroke="#C5DFF9" stroke-miterlimit="10"/>
<path d="M-15.0658 501.272C187.759 400.606 269.475 291.267 300.347 214.108C334.757 128.103 319.83 31.7041 351.177 28.7341C371.425 26.8117 395.711 65.5339 439.534 147.39C573.033 396.652 578.345 469.416 638.251 485.743C724.298 509.195 772.308 370.156 905.923 364.069C908.855 363.934 911.777 363.8 914.699 363.816C1010.08 364.341 1093.07 433.215 1149.26 494.175" stroke="#C5DFF9" stroke-miterlimit="10"/>
<path d="M-20.2225 490.696C176.563 392.276 262.303 286.637 295.46 214.575C332.122 134.892 317.518 43.7796 348.506 42.6486C368.64 41.9117 392.425 79.9354 434.656 158.777C563.583 399.446 569.946 473.168 629.413 488.489C715.918 510.775 761.718 362.717 896.678 352.365C899.674 352.134 902.666 351.913 905.649 351.817C1002.58 348.722 1089.67 420.524 1148.5 482.856" stroke="#C5DFF9" stroke-miterlimit="10"/>
<path d="M-25.3774 480.12C165.356 383.975 254.988 282.254 290.571 215.043C329.338 141.818 315.221 55.8678 345.841 56.5631C365.862 57.0148 389.154 94.3401 429.783 170.166C554.135 402.227 561.552 476.91 620.577 491.231C707.566 512.338 751.142 355.223 887.435 340.648C890.495 340.328 893.558 340.008 896.631 339.809C995.099 333.907 1086.3 407.828 1147.78 471.543" stroke="#C5DFF9" stroke-miterlimit="10"/>
<path d="M-30.5323 469.544C154.153 375.67 247.488 278.137 285.691 215.514C326.342 148.873 312.924 67.9657 343.182 70.4744C363.097 72.1276 385.886 108.742 424.913 181.556C544.697 405.008 553.171 480.639 611.748 493.977C699.214 513.889 740.576 347.678 878.199 328.954C881.326 328.528 884.453 328.096 887.605 327.82C987.608 319.138 1082.94 395.147 1147.05 460.24" stroke="#C5DFF9" stroke-miterlimit="10"/>
<path d="M-35.6837 458.968C142.946 367.356 239.745 274.283 280.799 215.982C323.036 155.999 310.647 80.0795 340.51 84.3887C360.326 87.2466 382.609 123.156 420.031 192.943C535.242 407.786 544.784 484.359 602.905 496.719C690.868 515.427 730 340.088 868.949 317.25C872.153 316.725 875.338 316.187 878.561 315.825C980.092 304.38 1079.54 382.465 1146.3 448.927" stroke="#C5DFF9" stroke-miterlimit="10"/>
<path d="M-40.8385 448.392C131.739 359.045 222.201 261.285 275.914 216.45C308.446 155.874 308.366 92.2095 337.845 98.3001C357.561 102.375 379.338 137.548 415.158 204.349C525.794 410.583 536.402 488.082 594.069 499.481C682.525 516.965 719.428 332.469 859.703 305.563C862.965 304.938 866.23 304.297 869.533 303.842C972.599 289.665 1076.18 369.785 1145.58 437.63" stroke="#C5DFF9" stroke-miterlimit="10"/>
<path d="M-45.9935 437.816C120.535 350.734 213.441 255.579 271.028 216.917C303.97 161.721 306.085 104.355 335.179 112.214C354.8 117.514 376.064 151.943 410.281 215.722C516.33 413.348 528.027 491.763 585.236 502.211C674.189 518.454 708.852 324.776 850.46 293.843C853.786 293.115 857.118 292.372 860.501 291.827C965.102 274.94 1072.79 357.081 1144.84 426.301" stroke="#C5DFF9" stroke-miterlimit="10"/>
<path d="M-51.1483 427.24C109.328 342.423 204.679 249.879 266.139 217.385C299.491 167.565 303.804 116.514 332.514 126.126C352.035 132.659 372.793 166.347 405.405 227.109C506.898 416.138 519.656 495.444 576.4 504.95C665.859 519.941 698.266 317.061 841.217 282.133C844.607 281.306 848.009 280.463 851.47 279.826C957.605 260.244 1069.41 344.387 1144.1 414.985" stroke="#C5DFF9" stroke-miterlimit="10"/>
<path d="M-56.3015 416.664C98.1258 334.113 195.918 244.176 261.252 217.856C295.014 173.415 301.518 128.692 329.844 140.04C349.266 147.819 369.521 180.755 400.531 238.489C497.449 418.9 511.286 499.109 567.562 507.689C657.527 521.405 687.673 309.308 831.973 270.422C835.43 269.49 838.899 268.555 842.433 267.821C950.113 245.564 1066.03 331.694 1143.36 403.666" stroke="#C5DFF9" stroke-miterlimit="10"/>
<path d="M-61.4563 406.085C86.9124 325.805 187.165 238.473 256.369 218.337C290.542 179.275 299.231 140.889 327.175 153.968C346.491 163.003 366.246 195.17 395.652 249.902C487.997 421.704 502.915 502.791 558.729 510.454C649.207 522.882 677.071 301.561 822.73 258.741C826.254 257.706 829.778 256.671 833.402 255.858C942.626 230.938 1062.65 319.035 1142.63 392.385" stroke="#C5DFF9" stroke-miterlimit="10"/>
<path d="M-66.6113 395.509C75.7085 317.494 178.393 232.77 251.48 218.792C286.063 185.109 296.927 153.077 324.513 167.866C343.717 178.163 362.975 209.562 390.779 261.279C478.565 424.472 494.553 506.427 549.89 513.187C640.88 524.302 666.451 293.737 813.487 247.025C817.072 245.884 820.679 244.756 824.38 243.837C935.154 216.283 1059.28 306.312 1141.9 381.053" stroke="#C5DFF9" stroke-miterlimit="10"/>
<path d="M-71.7559 384.933C64.5022 309.183 169.631 227.071 246.595 219.266C281.585 190.963 294.618 165.284 321.848 181.781C340.937 193.347 359.705 223.963 385.906 272.665C469.108 427.253 486.188 510.073 541.055 515.933C632.564 525.718 655.821 285.894 804.241 235.321C807.893 234.074 811.572 232.851 815.339 231.838C927.668 201.645 1055.89 293.635 1141.17 369.74" stroke="#C5DFF9" stroke-miterlimit="10"/>
<path d="M-76.9177 374.357C53.2947 300.872 160.872 221.368 241.709 219.731C277.109 196.807 292.301 177.494 319.182 195.701C338.146 208.539 356.434 238.371 381.017 284.061C459.647 430.04 477.81 513.697 532.205 518.682C624.23 527.118 645.165 278.07 794.985 223.62C798.701 222.271 802.45 220.955 806.291 219.846C920.186 187.032 1052.5 280.954 1140.41 358.433" stroke="#C5DFF9" stroke-miterlimit="10"/>
<path d="M-82.0724 363.781C42.0877 292.561 152.109 215.665 236.82 220.198C272.633 202.654 289.972 189.71 316.517 209.606C335.349 223.723 353.159 252.769 376.157 295.445C450.212 432.811 469.457 517.304 523.385 521.421C615.926 528.486 634.521 270.185 785.754 211.926C789.535 210.471 793.354 209.062 797.288 207.86C912.734 172.419 1049.13 268.257 1139.68 347.101" stroke="#C5DFF9" stroke-miterlimit="10"/>
<path d="M-87.2273 353.205C30.884 284.254 143.347 209.975 231.934 220.666C268.138 208.491 287.634 201.933 313.851 223.521C332.543 238.916 349.889 267.171 371.281 306.822C440.764 435.58 461.092 520.896 514.549 524.151C607.606 529.822 623.85 262.285 776.512 200.193C780.356 198.63 784.246 197.13 788.241 195.833C905.276 157.822 1045.76 255.569 1138.95 335.801" stroke="#C5DFF9" stroke-miterlimit="10"/>
<path d="M-92.3822 342.616C19.6769 275.93 134.584 204.25 227.045 221.124C263.675 214.335 285.285 214.14 311.179 237.419C329.73 254.08 346.614 281.559 366.401 318.209C431.312 438.354 452.724 524.488 505.71 526.897C599.286 531.164 613.165 254.394 767.268 188.509C771.174 186.836 775.137 185.247 779.206 183.854C897.827 143.238 1042.37 242.885 1138.21 324.504" stroke="#C5DFF9" stroke-miterlimit="10"/>
<path d="M-97.5353 332.043C8.46842 267.645 124.606 238.787 222.161 221.605C258.666 215.175 282.933 226.375 308.516 251.346C326.915 269.288 343.345 295.977 361.53 329.611C421.866 441.154 444.357 528.082 496.875 529.655C590.96 532.471 602.466 246.473 758.024 176.795C761.99 175.02 766.034 173.338 770.173 171.848C890.38 128.65 1038.98 230.191 1137.48 313.175" stroke="#C5DFF9" stroke-miterlimit="10"/>
<path d="M-102.69 321.47C-2.72902 259.315 114.854 201.875 217.275 222.066C254.223 229.352 280.568 238.589 305.85 265.255C324.093 284.478 340.071 310.372 356.654 340.995C412.421 443.929 435.985 531.645 488.039 532.391C582.63 533.75 591.752 238.537 748.778 165.085C752.811 163.201 756.925 161.439 761.141 159.847C883.03 114.316 1035.61 217.501 1136.75 301.862" stroke="#C5DFF9" stroke-miterlimit="10"/>
<path d="M-107.845 310.897C-13.9424 251.007 106.883 191.636 212.39 222.537C249.814 233.501 278.198 250.811 303.185 279.169C321.264 299.674 336.8 324.78 351.778 352.384C402.973 446.713 427.614 535.432 479.203 535.14C574.297 534.602 580.913 230.374 739.535 153.384C743.625 151.385 747.816 149.541 752.107 147.851C875.559 99.6297 1032.23 204.81 1136 290.546" stroke="#C5DFF9" stroke-miterlimit="10"/>
<path d="M-113 300.324C-25.1494 242.702 99.5362 181.46 207.501 223.011C370.258 285.66 384.339 539.36 470.37 537.886C568.441 536.207 570.447 206.159 743.075 135.856C868.084 84.9463 1028.86 192.123 1135.27 279.24" stroke="#C5DFF9" stroke-miterlimit="10"/>
</svg>
