<svg width="70" height="71" viewBox="0 0 70 71" fill="none" xmlns="http://www.w3.org/2000/svg">
<rect y="0.419983" width="70" height="70" rx="4" fill="#0E89FC"/>
<path d="M46.2015 21.6708C45.7548 21.7055 45.3278 21.8696 44.9728 22.143C44.6178 22.4164 44.35 22.7873 44.2022 23.2103C44.0544 23.6333 44.0329 24.0902 44.1405 24.5252C44.248 24.9602 44.4798 25.3545 44.8077 25.66C46.0908 26.9404 47.1081 28.4619 47.8012 30.1369C48.4943 31.8118 48.8494 33.6073 48.8462 35.42C48.8485 37.2326 48.493 39.0278 47.8 40.7026C47.107 42.3775 46.0901 43.899 44.8077 45.18C44.5849 45.3928 44.4068 45.648 44.284 45.9306C44.1612 46.2132 44.0961 46.5175 44.0925 46.8256C44.089 47.1337 44.1471 47.4394 44.2633 47.7248C44.3796 48.0102 44.5518 48.2694 44.7696 48.4873C44.9875 48.7052 45.2468 48.8773 45.5321 48.9936C45.8175 49.1099 46.1232 49.1679 46.4313 49.1644C46.7394 49.1608 47.0437 49.0957 47.3263 48.9729C47.6089 48.8501 47.8641 48.6721 48.0769 48.4492C51.5257 44.9901 53.4624 40.3046 53.4624 35.42C53.4624 30.5353 51.5257 25.8499 48.0769 22.3907C47.866 22.1678 47.6127 21.9891 47.3319 21.8652C47.0511 21.7413 46.7484 21.6747 46.4415 21.6692C46.3616 21.6661 46.2815 21.6661 46.2015 21.6692V21.6708ZM23.2692 21.7169C22.7578 21.7847 22.2839 22.022 21.9231 22.3907C18.4743 25.8499 16.5377 30.5353 16.5377 35.42C16.5377 40.3046 18.4743 44.9901 21.9231 48.4492C22.1359 48.6721 22.3911 48.8501 22.6737 48.9729C22.9563 49.0957 23.2606 49.1608 23.5687 49.1644C23.8768 49.1679 24.1826 49.1099 24.4679 48.9936C24.7533 48.8773 25.0125 48.7052 25.2304 48.4873C25.4483 48.2694 25.6204 48.0102 25.7367 47.7248C25.853 47.4394 25.911 47.1337 25.9075 46.8256C25.9039 46.5175 25.8388 46.2132 25.716 45.9306C25.5932 45.648 25.4152 45.3928 25.1923 45.18C23.9092 43.8995 22.8919 42.3781 22.1988 40.7031C21.5058 39.0281 21.1506 37.2327 21.1539 35.42C21.1515 33.6074 21.507 31.8122 22.2 30.1373C22.893 28.4625 23.9099 26.9409 25.1923 25.66C25.5412 25.3212 25.7741 24.8809 25.8578 24.4019C25.9415 23.9228 25.8718 23.4296 25.6586 22.9926C25.4454 22.5555 25.0995 22.197 24.6704 21.9682C24.2414 21.7394 23.751 21.6505 23.2692 21.7169ZM29.1354 26.8138C28.6294 26.8682 28.1556 27.0884 27.7877 27.44C26.6702 28.4478 25.7763 29.6786 25.1636 31.0531C24.551 32.4275 24.2332 33.9152 24.2308 35.42C24.2308 38.5708 25.5692 41.4354 27.74 43.4015C27.9643 43.6067 28.2267 43.7657 28.5124 43.8694C28.7981 43.9731 29.1015 44.0196 29.4051 44.0061C29.7088 43.9926 30.0068 43.9194 30.2821 43.7907C30.5575 43.662 30.8048 43.4804 31.01 43.2561C31.2152 43.0319 31.3742 42.7694 31.4779 42.4837C31.5816 42.198 31.6281 41.8947 31.6146 41.591C31.6011 41.2874 31.5279 40.9894 31.3992 40.714C31.2705 40.4386 31.0889 40.1913 30.8646 39.9861C30.2263 39.4095 29.7167 38.7049 29.3689 37.9181C29.0211 37.1314 28.843 36.2802 28.8462 35.42C28.843 34.5594 29.0212 33.7079 29.3693 32.9208C29.7173 32.1338 30.2274 31.4289 30.8662 30.8523C31.2348 30.5315 31.4922 30.102 31.6011 29.6257C31.7101 29.1493 31.665 28.6506 31.4723 28.2015C31.2797 27.7524 30.9494 27.376 30.5292 27.1267C30.1089 26.8773 29.6219 26.7677 29.1354 26.8138ZM40.5292 26.8138C40.0716 26.8391 39.6318 27 39.266 27.2762C38.9001 27.5523 38.6248 27.9311 38.4751 28.3644C38.3254 28.7976 38.3081 29.2656 38.4255 29.7087C38.5428 30.1518 38.7894 30.5499 39.1339 30.8523C39.7726 31.4289 40.2827 32.1338 40.6307 32.9208C40.9788 33.7079 41.157 34.5594 41.1539 35.42C41.157 36.2805 40.9788 37.1321 40.6307 37.9191C40.2827 38.7062 39.7726 39.411 39.1339 39.9877C38.8767 40.1797 38.6625 40.4233 38.5048 40.7028C38.3471 40.9823 38.2495 41.2917 38.2181 41.6111C38.1867 41.9305 38.2223 42.2529 38.3226 42.5578C38.4229 42.8626 38.5857 43.1432 38.8006 43.3816C39.0154 43.62 39.2777 43.811 39.5705 43.9423C39.8633 44.0736 40.1804 44.1424 40.5013 44.1443C40.8222 44.1461 41.14 44.081 41.4344 43.9532C41.7287 43.8253 41.9931 43.6374 42.2108 43.4015C43.3288 42.3937 44.2231 41.1627 44.836 39.7879C45.4489 38.4132 45.7668 36.9252 45.7692 35.42C45.775 33.9182 45.4656 32.4318 44.8611 31.057C44.2567 29.6822 43.3705 28.4495 42.26 27.4384C42.0298 27.2212 41.7573 27.0536 41.4596 26.9462C41.1618 26.8387 40.8451 26.7937 40.5292 26.8138ZM35 32.6323C34.4487 32.6326 33.9099 32.7963 33.4517 33.1028C32.9934 33.4093 32.6364 33.8448 32.4256 34.3542C32.2149 34.8637 32.1599 35.4241 32.2676 35.9648C32.3753 36.5054 32.641 37.002 33.0309 37.3917C33.4208 37.7814 33.9175 38.0468 34.4583 38.1542C34.999 38.2617 35.5594 38.2064 36.0687 37.9953C36.578 37.7843 37.0133 37.427 37.3195 36.9686C37.6258 36.5102 37.7892 35.9713 37.7892 35.42C37.7898 35.0535 37.7181 34.6905 37.5782 34.3519C37.4382 34.0132 37.2328 33.7055 36.9736 33.4463C36.7145 33.1872 36.4068 32.9818 36.0681 32.8418C35.7294 32.7019 35.3665 32.6317 35 32.6323Z" fill="#F1F8FF"/>
</svg>
