<svg width="70" height="71" viewBox="0 0 70 71" fill="none" xmlns="http://www.w3.org/2000/svg">
<rect y="0.419983" width="70" height="70" rx="4" fill="#0E89FC"/>
<path d="M35 20.8066C36.3205 21.4933 37.4854 22.4446 38.4219 23.6014C39.3584 24.7582 40.0466 26.0955 40.4434 27.53C40.5609 27.9561 40.843 28.318 41.2274 28.5362C41.6119 28.7544 42.0672 28.8109 42.4934 28.6933C42.9195 28.5757 43.2814 28.2937 43.4996 27.9092C43.7178 27.5248 43.7743 27.0694 43.6567 26.6433C42.8986 23.9043 41.3341 21.4566 39.1667 19.6183C39.4422 19.5961 39.72 19.5855 40 19.5866C43.345 19.5866 46.1334 20.8 48.05 23.1033C49.9384 25.365 50.8334 28.4966 50.8334 32.0866C50.8334 37.2483 49.9767 41.8616 48.5084 45.25C47.1084 48.48 44.8284 51.2533 41.6667 51.2533C39.8334 51.2533 38.6884 50.1666 38.0084 48.9866C37.405 47.9366 37.045 46.615 36.755 45.55C36.41 44.2833 36.145 43.3366 35.7684 42.6833C35.46 42.145 35.25 42.0866 35 42.0866C34.75 42.0866 34.5417 42.145 34.2317 42.6833C33.855 43.3366 33.59 44.2833 33.245 45.55C32.955 46.615 32.595 47.9383 31.9917 48.9866C31.3117 50.1666 30.1667 51.2533 28.3334 51.2533C25.1717 51.2533 22.8917 48.48 21.4917 45.25C20.025 41.8616 19.1667 37.25 19.1667 32.0866C19.1667 28.4966 20.0634 25.365 21.95 23.1033C23.8667 20.8 26.6534 19.5866 30 19.5866H30.0467C31.7714 19.5932 33.4696 20.0115 35 20.8066Z" fill="#F1F8FF"/>
</svg>
