<svg width="71" height="71" viewBox="0 0 71 71" fill="none" xmlns="http://www.w3.org/2000/svg">
<rect x="0.666687" y="0.419983" width="70" height="70" rx="4" fill="#0E89FC"/>
<g clip-path="url(#clip0_1_238)">
<path d="M35.6667 35.2771C38.6977 35.2771 41.6046 34.073 43.7479 31.9298C45.8912 29.7865 47.0953 26.8796 47.0953 23.8486C47.0953 20.8175 45.8912 17.9106 43.7479 15.7673C41.6046 13.6241 38.6977 12.42 35.6667 12.42C32.6356 12.42 29.7287 13.6241 27.5855 15.7673C25.4422 17.9106 24.2381 20.8175 24.2381 23.8486C24.2381 26.8796 25.4422 29.7865 27.5855 31.9298C29.7287 34.073 32.6356 35.2771 35.6667 35.2771ZM27.0953 40.2057C20.4881 42.1432 15.6667 48.2503 15.6667 55.4825C15.6667 56.9468 16.8542 58.1343 18.3185 58.1343H53.0149C54.4792 58.1343 55.6667 56.9468 55.6667 55.4825C55.6667 48.2503 50.8453 42.1432 44.2381 40.2057V44.7414C46.7024 45.3753 48.5238 47.6164 48.5238 50.2771V53.8486C48.5238 54.6343 47.881 55.2771 47.0953 55.2771H45.6667C44.881 55.2771 44.2381 54.6343 44.2381 53.8486C44.2381 53.0628 44.881 52.42 45.6667 52.42V50.2771C45.6667 48.6968 44.3899 47.42 42.8095 47.42C41.2292 47.42 39.9524 48.6968 39.9524 50.2771V52.42C40.7381 52.42 41.381 53.0628 41.381 53.8486C41.381 54.6343 40.7381 55.2771 39.9524 55.2771H38.5238C37.7381 55.2771 37.0953 54.6343 37.0953 53.8486V50.2771C37.0953 47.6164 38.9167 45.3753 41.381 44.7414V39.6432C40.8453 39.5896 40.3006 39.5628 39.747 39.5628H31.5863C31.0328 39.5628 30.4881 39.5896 29.9524 39.6432V45.4825C32.0149 46.0986 33.5238 48.0093 33.5238 50.2771C33.5238 53.0361 31.2828 55.2771 28.5238 55.2771C25.7649 55.2771 23.5238 53.0361 23.5238 50.2771C23.5238 48.0093 25.0328 46.0986 27.0953 45.4825V40.2057ZM28.5238 52.42C29.0922 52.42 29.6372 52.1942 30.0391 51.7924C30.4409 51.3905 30.6667 50.8454 30.6667 50.2771C30.6667 49.7088 30.4409 49.1638 30.0391 48.7619C29.6372 48.36 29.0922 48.1343 28.5238 48.1343C27.9555 48.1343 27.4105 48.36 27.0086 48.7619C26.6067 49.1638 26.381 49.7088 26.381 50.2771C26.381 50.8454 26.6067 51.3905 27.0086 51.7924C27.4105 52.1942 27.9555 52.42 28.5238 52.42Z" fill="#F1F8FF"/>
</g>
<defs>
<clipPath id="clip0_1_238">
<rect width="40" height="45.7143" fill="white" transform="translate(15.6667 12.42)"/>
</clipPath>
</defs>
</svg>
