<svg width="20" height="21" viewBox="0 0 20 21" fill="none" xmlns="http://www.w3.org/2000/svg">
<path d="M13.8575 12.0758L14.2375 11.6983L13.355 10.8117L12.9767 11.1892L13.8575 12.0758ZM15.5117 11.54L17.1042 12.4058L17.7 11.3075L16.1083 10.4425L15.5117 11.54ZM17.41 14.1258L16.2267 15.3033L17.1075 16.1892L18.2908 15.0125L17.41 14.1258ZM15.505 15.6817C14.2967 15.795 11.1717 15.6942 7.78667 12.3292L6.905 13.215C10.5983 16.8875 14.1142 17.0675 15.6217 16.9267L15.505 15.6817ZM7.78667 12.3292C4.56084 9.12084 4.02584 6.42334 3.95917 5.25251L2.71084 5.32334C2.79417 6.79667 3.45667 9.78667 6.905 13.215L7.78667 12.3292ZM8.9325 7.17917L9.17167 6.94084L8.29167 6.05501L8.0525 6.29251L8.9325 7.17917ZM9.36167 3.91167L8.31167 2.50834L7.31084 3.25834L8.36084 4.66084L9.36167 3.91167ZM4.7775 2.20251L3.46917 3.50251L4.35084 4.38917L5.65834 3.08917L4.7775 2.20251ZM8.4925 6.73584C8.05084 6.29251 8.05084 6.29251 8.05084 6.29417H8.04917L8.04667 6.29751C8.00707 6.33744 7.97161 6.38127 7.94084 6.42834C7.89584 6.49501 7.84667 6.58251 7.805 6.69334C7.70357 6.97945 7.67829 7.28702 7.73167 7.58584C7.84334 8.30667 8.34 9.25917 9.61167 10.5242L10.4933 9.63751C9.3025 8.45417 9.01917 7.73417 8.96667 7.39417C8.94167 7.23251 8.9675 7.15251 8.975 7.13417C8.98 7.12306 8.98 7.1214 8.975 7.12917C8.96757 7.14067 8.95921 7.15154 8.95 7.16167L8.94167 7.17001L8.93334 7.17751L8.4925 6.73584ZM9.61167 10.5242C10.8842 11.7892 11.8417 12.2825 12.5633 12.3925C12.9325 12.4492 13.23 12.4042 13.4558 12.32C13.5823 12.2737 13.7005 12.2073 13.8058 12.1233L13.8475 12.0858L13.8533 12.0808L13.8558 12.0783L13.8567 12.0767C13.8567 12.0767 13.8575 12.0758 13.4167 11.6325C12.975 11.1892 12.9775 11.1883 12.9775 11.1883L12.9792 11.1867L12.9808 11.185L12.9858 11.1808L12.9942 11.1725L13.0258 11.1475C13.0336 11.1425 13.0317 11.1431 13.02 11.1492C12.9992 11.1567 12.9175 11.1825 12.7533 11.1575C12.4083 11.1042 11.6833 10.8208 10.4933 9.63751L9.61167 10.5242ZM8.31167 2.50751C7.46167 1.37417 5.79167 1.19417 4.7775 2.20251L5.65834 3.08917C6.10167 2.64834 6.88834 2.69417 7.31084 3.25834L8.31167 2.50751ZM3.96 5.25334C3.94334 4.96501 4.07584 4.66334 4.35084 4.39001L3.46834 3.50334C3.02084 3.94834 2.66834 4.57834 2.71084 5.32334L3.96 5.25334ZM16.2267 15.3033C15.9983 15.5317 15.7517 15.66 15.5058 15.6825L15.6217 16.9267C16.2342 16.8692 16.735 16.5608 17.1083 16.19L16.2267 15.3033ZM9.17167 6.94084C9.9925 6.12501 10.0533 4.83584 9.3625 3.91251L8.36167 4.66167C8.6975 5.11084 8.6475 5.70001 8.29084 6.05584L9.17167 6.94084ZM17.105 12.4067C17.7858 12.7767 17.8917 13.6483 17.4108 14.1267L18.2925 15.0125C19.4092 13.9017 19.065 12.0492 17.7008 11.3083L17.105 12.4067ZM14.2375 11.6992C14.5575 11.3808 15.0725 11.3025 15.5125 11.5408L16.1092 10.4433C15.2058 9.95167 14.0858 10.0875 13.3558 10.8125L14.2375 11.6992Z" fill="#0E89FC"/>
</svg>
