<svg width="20px" height="21px" viewBox="0 0 20 21" fill="none" xmlns="http://www.w3.org/2000/svg">
<path fill-rule="evenodd" clip-rule="evenodd" d="M5.6371 5.07778C5.46575 4.76735 5.30944 4.45586 5.16794 4.13913C4.9555 3.66409 4.80774 3.16217 4.62163 2.67791C4.5425 2.47252 4.3278 1.94001 4.3105 1.85865C4.16335 1.14839 4.67447 0.852503 4.82811 0.777789C4.90169 0.739489 5.66603 0.371487 6.14717 1.19357C6.73616 2.19847 7.18465 3.26096 7.48336 4.35104C7.97453 5.19458 8.58785 5.99108 9.26652 6.66893C11.9666 9.36464 15.0539 8.63551 18.2687 7.47447C18.7621 7.29306 19.3105 7.53782 19.5094 8.02176C19.7096 8.50941 19.4912 9.06895 19.013 9.28665C17.2714 10.0933 14.5801 12.6611 14.0022 14.5541C13.8814 14.9503 14.0135 15.7575 14.0969 16.5651C14.2114 17.6865 14.2748 18.8133 14.0946 19.3594C14.0684 19.4436 13.7038 20.3375 13.5587 20.5008C13.2089 20.89 12.8142 20.8744 12.5732 20.8174C12.3321 20.7604 12.0222 20.5902 11.7888 20.2099C11.5449 19.8125 11.314 18.9026 11.2332 18.7186C10.94 18.0513 10.3308 16.7537 9.6452 15.6953C9.27585 15.1254 8.91339 14.6073 8.54709 14.4152C7.19112 13.7043 5.67023 14.4127 4.40458 15.0524C4.25872 15.1244 4.11416 15.2001 3.96867 15.2719C3.48447 15.6208 2.95257 15.9406 2.37117 16.2236C1.4936 16.6522 1.04791 15.8635 1.02024 15.8108C0.960278 15.6944 0.675812 15.0865 1.27727 14.5924C1.34342 14.54 1.85583 14.2229 2.05283 14.0996C2.32747 13.9284 2.61065 13.7708 2.89625 13.6165C5.68024 11.5491 6.42023 8.22527 5.6371 5.07778ZM7.89166 8.07134C9.92694 10.0968 12.1306 10.6477 14.4398 10.4371L14.4395 10.4373C13.3577 11.5953 12.4568 12.8855 12.1237 13.9807C11.997 14.3957 12.0074 15.1373 12.0682 15.9528C11.7164 15.2977 11.3108 14.6114 10.8959 14.0492C10.423 13.4074 9.91669 12.9148 9.46044 12.6752C8.58001 12.2138 7.64311 12.1136 6.7134 12.2275C7.42574 10.9492 7.8089 9.53254 7.89166 8.07134Z" fill="#0E89FC"/>
</svg>
