<svg width="45px" height="48px" viewBox="0 0 45 48" fill="none" xmlns="http://www.w3.org/2000/svg">
<path fill-rule="evenodd" clip-rule="evenodd" d="M18.013 10.0691C17.8845 9.30629 17.7876 8.55209 17.725 7.7978C17.6308 6.66637 17.689 5.52629 17.6556 4.39486C17.641 3.91486 17.5836 2.66345 17.6068 2.48345C17.8168 0.914881 19.0827 0.674851 19.453 0.631994C19.6322 0.60628 21.4716 0.400658 21.8685 2.44066C22.3553 4.93494 22.5113 7.44634 22.339 9.90634C22.741 11.9978 23.4285 14.0806 24.3362 15.9663C27.9482 23.4663 34.831 24.1949 42.2882 24.1263C43.435 24.1092 44.3874 25.0092 44.4473 26.1492C44.5074 27.2977 43.6536 28.292 42.5119 28.3949C38.3436 28.7977 30.9482 32.1406 28.3913 35.6206C27.8564 36.3492 27.5453 38.1064 27.1339 39.8292C26.5596 42.2206 25.8765 44.5863 25.111 45.5806C24.9962 45.7349 23.5999 47.3121 23.1833 47.5435C22.1822 48.0921 21.3808 47.7749 20.9256 47.4834C20.4705 47.192 19.9553 46.6177 19.7496 45.6663C19.5345 44.672 19.7162 42.632 19.6828 42.1948C19.561 40.6091 19.2439 37.4977 18.5968 34.8234C18.2479 33.3834 17.8759 32.0549 17.2605 31.3949C14.9822 28.952 11.3393 29.312 8.27162 29.7149C7.91933 29.7578 7.56705 29.8092 7.21562 29.8521C5.96677 30.2206 4.64073 30.4949 3.2393 30.6577C1.12302 30.9063 0.775042 28.9606 0.756185 28.832C0.716756 28.5492 0.570169 27.092 2.16531 26.5092C2.33931 26.4492 3.62333 26.1663 4.1179 26.0549C4.80704 25.9006 5.50388 25.7806 6.20331 25.6692C13.4282 23.4235 17.3522 17.1149 18.013 10.0691ZM20.4928 17.8606C23.2202 23.5006 27.3593 26.2263 32.2656 27.4606H32.2648C29.2013 29.0635 26.4147 31.0692 24.9379 33.0835C24.3773 33.8464 23.863 35.3806 23.3993 37.1035C23.1482 35.5006 22.8088 33.7948 22.3605 32.3377C21.8505 30.6748 21.1639 29.2949 20.3976 28.4721C18.9182 26.8864 17.0616 26.0035 15.0653 25.5664C17.455 23.4492 19.267 20.8092 20.4928 17.8606Z" fill="#0E89FC"/>
</svg>
