<svg width="34" height="35" viewBox="0 0 34 35" fill="none" xmlns="http://www.w3.org/2000/svg">
<path d="M33.5717 17.9717L18.5717 1.30503C17.94 0.601694 16.7267 0.601694 16.095 1.30503L1.09501 17.9717C0.879477 18.2112 0.738004 18.5081 0.687718 18.8264C0.637432 19.1447 0.680489 19.4707 0.811676 19.765C1.07834 20.3667 1.67501 20.7534 2.33334 20.7534H5.66668V32.42C5.66668 32.8621 5.84227 33.286 6.15483 33.5985C6.46739 33.9111 6.89132 34.0867 7.33334 34.0867H27.3333C27.7754 34.0867 28.1993 33.9111 28.5119 33.5985C28.8244 33.286 29 32.8621 29 32.42V20.7534H32.3333C32.6561 20.7547 32.9723 20.6622 33.2434 20.4869C33.5145 20.3117 33.7287 20.0614 33.86 19.7665C33.9913 19.4716 34.0339 19.1449 33.9827 18.8262C33.9315 18.5075 33.7887 18.2106 33.5717 17.9717ZM24 22.42H19V27.42H15.6667V22.42H10.6667V19.0867H15.6667V14.0867H19V19.0867H24V22.42Z" fill="#F1F8FF"/>
</svg>
