<svg width="40" height="41" viewBox="0 0 40 41" fill="none" xmlns="http://www.w3.org/2000/svg">
<path d="M20 5.80663C21.3205 6.49327 22.4854 7.44464 23.4219 8.6014C24.3584 9.75815 25.0466 11.0955 25.4434 12.53C25.5609 12.9561 25.843 13.318 26.2274 13.5362C26.6119 13.7544 27.0672 13.8109 27.4934 13.6933C27.9195 13.5757 28.2814 13.2937 28.4996 12.9092C28.7178 12.5248 28.7743 12.0694 28.6567 11.6433C27.8986 8.90426 26.3341 6.45657 24.1667 4.61829C24.4422 4.59607 24.72 4.58552 25 4.58663C28.345 4.58663 31.1334 5.79996 33.05 8.10329C34.9384 10.365 35.8334 13.4966 35.8334 17.0866C35.8334 22.2483 34.9767 26.8616 33.5084 30.25C32.1084 33.48 29.8284 36.2533 26.6667 36.2533C24.8334 36.2533 23.6884 35.1666 23.0084 33.9866C22.405 32.9366 22.045 31.615 21.755 30.55C21.41 29.2833 21.145 28.3366 20.7684 27.6833C20.46 27.145 20.25 27.0866 20 27.0866C19.75 27.0866 19.5417 27.145 19.2317 27.6833C18.855 28.3366 18.59 29.2833 18.245 30.55C17.955 31.615 17.595 32.9383 16.9917 33.9866C16.3117 35.1666 15.1667 36.2533 13.3334 36.2533C10.1717 36.2533 7.89169 33.48 6.49169 30.25C5.02502 26.8616 4.16669 22.25 4.16669 17.0866C4.16669 13.4966 5.06335 10.365 6.95002 8.10329C8.86669 5.79996 11.6534 4.58663 15 4.58663H15.0467C16.7714 4.5932 18.4696 5.01147 20 5.80663Z" fill="#F1F8FF"/>
</svg>
